# File exported by Houdini 16.0.600 (www.sidefx.com)
# 28 points
# 28 vertices
# 7 primitives
# Bounds: [-0.450001538, -0.450001538, -8.26638511e-17] to [50, 50, 9.18485089e-15]
g 
v 50 50 9.18485089e-15
v -3.74939933e-31 50 3.0616171e-15
v 50 0 6.12323421e-15
v 0 0 0
v -0.0500000007 49.8499985 3.04630889e-15
v -0.150000006 49.8499985 3.03406249e-15
v -0.0500000007 -0.150001526 -1.53081783e-17
v -0.150000006 -0.150001526 -2.75546468e-17
v -0.200000003 49.6999969 3.01875427e-15
v -0.300000012 49.6999969 3.00650787e-15
v -0.200000003 -0.300001532 -4.28627325e-17
v -0.300000012 -0.300001532 -5.5109201e-17
v -0.350000024 49.5499992 2.99119987e-15
v -0.450000018 49.5499992 2.97895347e-15
v -0.350000024 -0.450001538 -7.041729e-17
v -0.450000018 -0.450001538 -8.26637585e-17
v 49.8499985 -0.150000006 6.09567938e-15
v 49.8499985 -0.049999997 6.10180258e-15
v -0.150001526 -0.150000006 -2.75547411e-17
v -0.150001526 -0.049999997 -2.14315069e-17
v 49.6999969 -0.300000012 6.06812498e-15
v 49.6999969 -0.200000003 6.07424818e-15
v -0.300001532 -0.300000012 -5.5109297e-17
v -0.300001532 -0.200000003 -4.89860627e-17
v 49.5499992 -0.450000018 6.04057057e-15
v 49.5499992 -0.350000024 6.04669377e-15
v -0.450001538 -0.450000018 -8.26638511e-17
v -0.450001538 -0.350000024 -7.65406169e-17
vt 0 0.910568535 0
vt 0 0 0
vt 0.910568535 0 0
vt 0.910568535 0.910568535 0
vt 0.954373658 0.910568535 0
vt 0.954373658 0 0
vt 0.956194818 0 0
vt 0.956194818 0.910568535 0
vt 0.931560516 0.910568535 0
vt 0.931560516 0 0
vt 0.933381617 0 0
vt 0.933381617 0.910568535 0
vt 0.977186859 0.910568535 0
vt 0.977186859 0 0
vt 0.979008019 0 0
vt 0.979008019 0.910568535 0
vt 0 0.954373658 0
vt 0.910568535 0.954373658 0
vt 0.910568535 0.956194818 0
vt 0 0.956194818 0
vt 0 0.931560516 0
vt 0.910568535 0.931560516 0
vt 0.910568535 0.933381617 0
vt 0 0.933381617 0
vt 0 0.977186859 0
vt 0.910568535 0.977186859 0
vt 0.910568535 0.979008019 0
vt 0 0.979008019 0
vn 1.22464685e-16 6.12323426e-17 -1
vn 1.22464685e-16 6.12323426e-17 -1
vn 1.22464685e-16 6.12323426e-17 -1
vn 1.22464685e-16 6.12323426e-17 -1
vn 1.22464685e-16 6.12323426e-17 -1
vn 1.22464685e-16 6.12323426e-17 -1
vn 1.22464685e-16 6.12323426e-17 -1
vn 1.22464685e-16 6.12323426e-17 -1
vn 1.22464685e-16 6.12323426e-17 -1
vn 1.22464685e-16 6.12323426e-17 -1
vn 1.22464685e-16 6.12323426e-17 -1
vn 1.22464685e-16 6.12323426e-17 -1
vn 1.22464685e-16 6.12323426e-17 -1
vn 1.22464685e-16 6.12323426e-17 -1
vn 1.22464685e-16 6.12323426e-17 -1
vn 1.22464685e-16 6.12323426e-17 -1
vn 1.22464685e-16 6.12323426e-17 -1
vn 1.22464685e-16 6.12323426e-17 -1
vn 1.22464685e-16 6.12323426e-17 -1
vn 1.22464685e-16 6.12323426e-17 -1
vn 1.22464685e-16 6.12323426e-17 -1
vn 1.22464685e-16 6.12323426e-17 -1
vn 1.22464685e-16 6.12323426e-17 -1
vn 1.22464685e-16 6.12323426e-17 -1
vn 1.22464685e-16 6.12323426e-17 -1
vn 1.22464685e-16 6.12323426e-17 -1
vn 1.22464685e-16 6.12323426e-17 -1
vn 1.22464685e-16 6.12323426e-17 -1
g Mask
f 1/1/1 3/2/2 4/3/3 2/4/4
f 5/5/5 7/6/6 8/7/7 6/8/8
f 9/9/9 11/10/10 12/11/11 10/12/12
f 13/13/13 15/14/14 16/15/15 14/16/16
f 17/17/17 19/18/18 20/19/19 18/20/20
f 21/21/21 23/22/22 24/23/23 22/24/24
f 25/25/25 27/26/26 28/27/27 26/28/28
